<svg width="24" height="24" viewBox="0 0 24 24" fill="none" xmlns="http://www.w3.org/2000/svg">
<rect x="4.5" y="5.50012" width="5" height="12" rx="2.5" fill="white" stroke="black"/>
<rect x="14.7404" y="5.50012" width="5" height="12" rx="2.5" fill="white" stroke="black"/>
<path d="M5.39697 6.11328C6.43909 5.20762 8.01763 5.31826 8.92334 6.36035L13.9097 12.0977C14.8154 13.1398 14.7047 14.7183 13.6626 15.624C12.6205 16.5296 11.0419 16.419 10.1362 15.377L5.1499 9.63965C4.24429 8.59753 4.3549 7.01898 5.39697 6.11328Z" fill="#F96859" stroke="black"/>
<path d="M15.3303 6.36035C16.236 5.31829 17.8146 5.2077 18.8567 6.11328C19.8988 7.019 20.0094 8.59753 19.1038 9.63965L14.1165 15.3779C13.2107 16.42 11.6322 16.5307 10.5901 15.625C9.54799 14.7193 9.43732 13.1408 10.343 12.0986L15.3303 6.36035Z" fill="#FEB835" stroke="black"/>
</svg>
